#!OML:ASF H:\Male1\Project 1\Capture day 1\Session 1\Male1.ASF
:FULLY-SPECIFIED
:DEGREES
342
root 5.59822 15.4763 -3.32616 3.22731 -36.1845 5.91555
lowerback 20.0042 -0.216427 5.01882
upperback 13.7719 -0.094031 6.48958
thorax 3.88064 -0.22318 4.14973
lowerneck -7.5473 -8.96014 -1.73
upperneck -4.06398 -11.8756 14.1094
head 1.08898 -5.87726 4.48509
rclavicle -1.74931e-014 3.65764e-014
rhumerus 26.6326 -20.3936 -66.6113
rradius 25.8404
rwrist -48.1557
rhand -25.019 -24.2546
rfingers 7.12502
rthumb 1.49318 -54.2291
lclavicle -1.74931e-014 3.65764e-014
lhumerus 73.2289 -61.2702 37.2227
lradius 43.2782
lwrist 34.6711
lhand -15.0759 41.8919
lfingers 7.12502
lthumb 11.0915 71.5788
rfemur -25.1199 -0.277046 15.5379
rtibia 33.2224
rfoot -29.5515 -30.1551
rtoes -5.36184
lfemur -20.9148 -10.0148 -25.2136
ltibia 33.8109
lfoot -19.279 14.4041
ltoes -17.4306
343
root 5.51788 15.4692 -3.33558 3.40551 -36.3877 5.53714
lowerback 20.0002 -0.140998 5.18129
upperback 13.776 0.0246496 6.4397
thorax 3.88412 -0.150823 3.98406
lowerneck -7.66236 -8.9902 -1.68186
upperneck -3.9114 -11.9404 14.1907
head 1.16838 -5.89802 4.49211
rclavicle -3.18055e-014 6.52014e-014
rhumerus 25.9036 -19.1647 -66.2539
rradius 26.7367
rwrist -49.3921
rhand -25.1796 -24.2962
rfingers 7.12502
rthumb 1.33812 -54.2717
lclavicle -3.18055e-014 6.52014e-014
lhumerus 70.9481 -61.3285 38.7139
lradius 44.1376
lwrist 34.9843
lhand -15.0335 41.5376
lfingers 7.12502
lthumb 11.1324 71.2223
rfemur -25.0126 -0.259776 16.2354
rtibia 33.3337
rfoot -29.6071 -30.0932
rtoes -5.88159
lfemur -21.4656 -10.4577 -25.4468
ltibia 33.9624
lfoot -19.5111 13.9448
ltoes -18.2686
344
root 5.43687 15.4614 -3.3423 3.59571 -36.5909 5.09943
lowerback 19.9926 -0.0670472 5.34538
upperback 13.7844 0.140299 6.40005
thorax 3.89585 -0.0806707 3.82946
lowerneck -7.76214 -9.01206 -1.66033
upperneck -3.75217 -11.9938 14.295
head 1.25032 -5.91257 4.51359
rclavicle 6.20208e-014 -2.06736e-014
rhumerus 24.8583 -17.3876 -65.7037
rradius 27.9894
rwrist -50.9042
rhand -25.499 -24.3888
rfingers 7.12502
rthumb 1.02966 -54.3661
lclavicle 6.20208e-014 -2.06736e-014
lhumerus 67.876 -61.416 40.7167
lradius 45.3668
lwrist 35.1056
lhand -15.0456 41.2027
lfingers 7.12502
lthumb 11.1208 70.8881
rfemur -24.8568 -0.284395 16.977
rtibia 33.4343
rfoot -29.7417 -29.9303
rtoes -6.1822
lfemur -22.011 -10.9419 -25.574
ltibia 34.0892
lfoot -19.7443 13.4376
ltoes -19.0153
345
root 5.35606 15.4529 -3.34606 3.7726 -36.787 4.64607
lowerback 19.9737 -0.00859343 5.48191
upperback 13.8004 0.229599 6.36729
thorax 3.92325 -0.0261201 3.70255
lowerneck -7.83422 -9.01452 -1.69823
upperneck -3.5921 -12.0169 14.4103
head 1.33058 -5.91213 4.55338
rclavicle 7.63333e-014 -6.04305e-014
rhumerus 23.5835 -15.096 -65.0537
rradius 29.5701
rwrist -52.5901
rhand -26.0116 -24.5043
rfingers 7.12502
rthumb 0.534547 -54.4834
lclavicle 7.63333e-014 -6.04305e-014
lhumerus 63.9852 -61.4663 43.2839
lradius 46.9248
lwrist 35.0096
lhand -15.1292 40.9263
lfingers 7.12502
lthumb 11.0402 70.616
rfemur -24.6722 -0.402788 17.7234
rtibia 33.5567
rfoot -29.9204 -29.6287
rtoes -6.26039
lfemur -22.5292 -11.4396 -25.6336
ltibia 34.1885
lfoot -19.9919 12.921
ltoes -19.436
346
root 5.27575 15.4433 -3.34656 3.90569 -36.9789 4.22672
lowerback 19.9355 0.0316728 5.54518
upperback 13.8227 0.281999 6.34186
thorax 3.96752 0.00454862 3.63105
lowerneck -7.84997 -8.99259 -1.80752
upperneck -3.4434 -11.9882 14.8956
head 1.32178 -5.87658 4.24836
rclavicle -3.18055e-014 4.45278e-014
rhumerus 22.1835 -12.3677 -64.3874
rradius 31.4204
rwrist -54.3838
rhand -26.6731 -24.6878
rfingers 7.12502
rthumb -0.104317 -54.6675
lclavicle -3.18055e-014 4.45278e-014
lhumerus 59.3186 -61.4156 46.4017
lradius 48.7709
lwrist 34.7429
lhand -15.3013 40.715
lfingers 7.12502
lthumb 10.8741 70.4134
rfemur -24.4787 -0.653932 18.4332
rtibia 33.7282
rfoot -30.0818 -29.1782
rtoes -6.19991
lfemur -22.9932 -11.9082 -25.6718
ltibia 34.2518
lfoot -20.2218 12.4215
ltoes -19.456
